<svg width="139" height="140" viewBox="0 0 139 140" fill="none" xmlns="http://www.w3.org/2000/svg">
<rect width="138.915" height="140" rx="20" fill="#F2E205"/>
<path d="M68.6004 123C58.5629 123 49.4622 120.725 41.2983 116.174C33.1345 111.624 26.7104 105.334 22.0263 97.3039C17.3421 89.1401 15 79.8387 15 69.3996C15 59.3621 17.2752 50.2614 21.8255 42.0976C26.3759 33.9337 32.666 27.5766 40.6961 23.0263C48.8599 18.3421 58.1614 16 68.6004 16C78.6379 16 87.7386 18.2752 95.9024 22.8255C104.066 27.3759 110.423 33.733 114.974 41.8968C119.658 49.9268 122 59.0944 122 69.3996C122 79.4372 119.725 88.5378 115.174 96.7017C110.624 104.866 104.267 111.29 96.1032 115.974C88.0732 120.658 78.9056 123 68.6004 123ZM68.6004 112.159C76.4966 112.159 83.5897 110.353 89.8799 106.739C96.1701 103.126 101.122 98.1069 104.735 91.6829C108.349 85.1251 110.156 77.6973 110.156 69.3996C110.156 61.3696 108.349 54.1426 104.735 47.7186C101.256 41.1607 96.3709 36.075 90.0807 32.4615C83.7905 28.7142 76.6304 26.8405 68.6004 26.8405C60.7042 26.8405 53.5441 28.6473 47.1201 32.2608C40.8299 35.8743 35.8781 40.96 32.2645 47.5178C28.651 53.9418 26.8443 61.2358 26.8443 69.3996C26.8443 77.4296 28.5841 84.7236 32.0638 91.2814C35.6773 97.7054 40.6291 102.791 46.9193 106.538C53.3433 110.286 60.5704 112.159 68.6004 112.159ZM48.3246 93.6904V45.1088H74.6229C79.5747 45.1088 83.5898 46.4472 86.6679 49.1238C89.7461 51.8005 91.2852 55.2802 91.2852 59.5628C91.2852 62.641 90.3483 65.3177 88.4747 67.5929C86.7348 69.868 84.3928 71.541 81.4484 72.6116C84.7943 73.2808 87.0025 75.2883 88.0732 78.6342L92.8912 93.6904H82.6529L78.6379 80.8424C77.9687 78.5672 76.3627 77.4296 73.8199 77.4296H58.3621V93.6904H48.3246ZM74.8236 68.7974C76.965 68.7974 78.571 68.0613 79.6416 66.5891C80.8462 65.1169 81.4484 63.3771 81.4484 61.3696C81.4484 59.3621 80.8462 57.6892 79.6416 56.3508C78.571 54.8787 76.965 54.1426 74.8236 54.1426H58.3621V68.7974H74.8236Z" fill="#0D0D0D"/>
</svg>
