<svg width="51" height="51" viewBox="0 0 51 51" fill="none" xmlns="http://www.w3.org/2000/svg">
<rect width="51" height="51" rx="6" fill="#F2E205"/>
<path d="M38.8535 44.5H38.6504C37.7141 44.5 36.8211 44.0789 36.232 43.3318L36.2317 43.3314L30.228 35.7022L20.8504 43.5368L20.8503 43.5369C19.7913 44.4212 18.3648 44.7087 17.0377 44.3099C15.7098 43.9109 14.6909 42.8867 14.3232 41.566L14.3232 41.5659L5.61573 10.2572L5.6157 10.2571C5.16115 8.62094 6.10589 7.34433 7.19716 6.81604C8.28766 6.28811 9.885 6.33075 10.9343 7.66462C10.9343 7.66464 10.9343 7.66467 10.9344 7.66469L30.5574 32.601L38.8234 25.6942L38.8235 25.6942C40.2094 24.5364 42.1055 24.4121 43.6363 25.3765C45.1698 26.3427 45.8439 28.0921 45.3298 29.8142C45.3298 29.8143 45.3298 29.8143 45.3298 29.8144L41.5954 42.3392L38.8535 44.5ZM38.8535 44.5L38.862 44.4918M38.8535 44.5L38.862 44.4918M38.862 44.4918C38.9815 44.4837 39.1017 44.4688 39.2215 44.4465C39.2217 44.4464 39.2219 44.4464 39.2222 44.4464L39.1306 43.9548C40.0838 43.7799 40.8455 43.1067 41.1161 42.1967L38.862 44.4918ZM31.8994 34.3073L40.2361 27.3418L40.2362 27.3418C41.0126 26.693 41.8796 26.8306 42.4595 27.1955C43.0386 27.5607 43.5127 28.2638 43.2319 29.2062C43.2319 29.2062 43.2319 29.2062 43.2319 29.2062L39.4976 41.7305C39.4976 41.7306 39.4976 41.7307 39.4976 41.7308C39.4041 42.0415 39.1587 42.2637 38.8199 42.3258C38.479 42.3883 38.1632 42.2679 37.9586 42.0078L37.9586 42.0077L31.8994 34.3073ZM7.72488 9.68472L7.72484 9.68461C7.59612 9.22233 7.84747 8.90403 8.15872 8.75369C8.27593 8.69734 8.42026 8.65938 8.56683 8.65938H8.56805C8.77875 8.65938 9.00843 8.73601 9.20767 8.98863C9.20771 8.98867 9.20774 8.98872 9.20778 8.98877L28.8878 33.9966L19.4401 41.8904L19.4398 41.8906C18.9541 42.2972 18.2971 42.4314 17.6784 42.2462C17.0615 42.06 16.6008 41.591 16.4347 40.9944L7.72488 9.68472Z" fill="#1A1A1A" stroke="#1A1A1A"/>
</svg>
