<?xml version="1.0" encoding="UTF-8"?><svg id="Layer_1" xmlns="http://www.w3.org/2000/svg" viewBox="0 0 1080 1080"><defs><style>.cls-1{fill:#eada05;}.cls-2{fill:#0d0d0d;}</style></defs><rect class="cls-2" x="0" width="1080" height="1080" rx="175.1" ry="175.1"/><path class="cls-1" d="m283.5,876.49V185.51h316.9c39.44,0,74.71,7.47,105.63,22.25,30.93,14.78,55.11,35.34,72.54,61.69s26.19,56.23,26.19,89.81c0,36.87-12.05,69.56-36.07,98.24-24.02,28.6-56.39,49.48-97.2,62.66,45.39,9.24,81.53,29,108.52,59.2,26.99,30.28,40.49,66.51,40.49,108.6,0,36.87-8.84,69.56-26.67,98.24-17.75,28.6-42.73,50.77-75.03,66.59-32.21,15.82-69.08,23.7-110.53,23.7h-324.77Zm311.92-388.87c36.87,0,66.99-11.25,90.37-33.58,23.38-22.41,35.02-51.01,35.02-85.87,0-31.65-10.52-57.27-31.57-77.04-21.05-19.76-48.04-29.56-80.97-29.56h-242.83v226.04h229.98Zm21.77,312.88c34.86,0,63.14-11.17,84.91-33.58,21.69-22.33,32.53-51.65,32.53-87.88s-12.69-65.63-38-86.35c-25.3-20.72-57.43-31.09-96.23-31.09h-234.96v238.9h251.75Z"/></svg>